<?xml version="1.0" encoding="utf-8"?>
<svg viewBox="0 0 234 84" xmlns="http://www.w3.org/2000/svg" xmlns:xlink="http://www.w3.org/1999/xlink">
    <g transform="matrix(1, 0, 0, 1, 0.14461499452591298, 0.000002000000222324161)">
        <circle style="fill-opacity: 1; stroke-width: 0.452501; stroke-miterlimit: 4; stroke-dasharray: none; stroke-opacity: 1; display: inline; fill: currentColor;" id="path4547" cx="40.338" cy="82" r="1.774"/>
        <circle style="fill-opacity: 1; stroke-width: 0.452501; stroke-miterlimit: 4; stroke-dasharray: none; stroke-opacity: 1; display: inline; fill: currentColor;" id="path4547-6" cx="40.338" cy="72" r="1.774"/>
        <circle style="fill-opacity: 1; stroke-width: 0.452501; stroke-miterlimit: 4; stroke-dasharray: none; stroke-opacity: 1; display: inline; fill: currentColor;" id="path4547-7" cx="40.338" cy="12" r="1.774"/>
        <circle style="fill-opacity: 1; stroke-width: 0.452501; stroke-miterlimit: 4; stroke-dasharray: none; stroke-opacity: 1; display: inline; fill: currentColor;" id="path4547-5" cx="40.338" cy="2" r="1.774"/>
        <circle style="fill-opacity: 1; stroke-width: 0.452501; stroke-miterlimit: 4; stroke-dasharray: none; stroke-opacity: 1; display: inline; fill: currentColor;" id="path4547-7-5" cx="5.697" cy="22" r="1.774"/>
        <circle style="fill-opacity: 1; stroke-width: 0.452501; stroke-miterlimit: 4; stroke-dasharray: none; stroke-opacity: 1; display: inline; fill: currentColor;" id="path4547-7-6" cx="74.979" cy="22" r="1.774"/>
        <circle style="fill-opacity: 1; stroke-width: 0.452501; stroke-miterlimit: 4; stroke-dasharray: none; stroke-opacity: 1; display: inline; fill: currentColor;" id="path4547-7-2" cx="5.697" cy="62" r="1.774"/>
    </g>
    <g transform="matrix(1, 0, 0, 1, 0.14461499452591298, 0.000002000000222324161)">
        <path style="color: currentColor; font-style: normal; font-variant: normal; font-weight: normal; font-stretch: normal; font-size: medium; line-height: normal; font-family: sans-serif; font-feature-settings: normal; text-indent: 0px; text-align: start; text-decoration: none solid currentColor; letter-spacing: normal; word-spacing: normal; text-transform: none; writing-mode: lr-tb; direction: ltr; text-orientation: mixed; dominant-baseline: auto; baseline-shift: baseline; text-anchor: start; white-space: normal; clip-rule: nonzero; display: inline; overflow: visible; visibility: visible; opacity: 1; isolation: auto; mix-blend-mode: normal; color-interpolation: srgb; color-interpolation-filters: linearrgb; vector-effect: none; fill-opacity: 1; fill-rule: nonzero; stroke-width: 1.35; stroke-linecap: butt; stroke-linejoin: miter; stroke-miterlimit: 4; stroke-dasharray: none; stroke-dashoffset: 0; stroke-opacity: 1; color-rendering: auto; image-rendering: auto; shape-rendering: auto; text-rendering: auto; fill: currentColor;" d="M 44.045 1.866 C 21.869 -0.181 2.217 16.15 0.169 38.325 C -1.878 60.501 14.453 80.154 36.629 82.201 C 51.681 83.59 65.568 76.51 73.579 64.885 C 72.904 65.117 72.216 65.306 71.517 65.451 C 63.658 75.897 50.731 82.147 36.753 80.857 C 15.304 78.877 -0.466 59.898 1.514 38.449 C 3.494 17 22.472 1.23 43.921 3.21 C 62.175 4.895 76.313 18.892 78.9 36.245 C 79.449 36.71 79.967 37.209 80.451 37.741 C 78.464 19.02 63.506 3.663 44.045 1.866 Z" id="path3722"/>
        <path style="color: currentColor; font-style: normal; font-variant: normal; font-weight: normal; font-stretch: normal; font-size: medium; line-height: normal; font-family: sans-serif; font-feature-settings: normal; text-indent: 0px; text-align: start; text-decoration: none solid currentColor; letter-spacing: normal; word-spacing: normal; text-transform: none; writing-mode: lr-tb; direction: ltr; text-orientation: mixed; dominant-baseline: auto; baseline-shift: baseline; text-anchor: start; white-space: normal; clip-rule: nonzero; display: inline; overflow: visible; visibility: visible; opacity: 1; isolation: auto; mix-blend-mode: normal; color-interpolation: srgb; color-interpolation-filters: linearrgb; vector-effect: none; fill-opacity: 1; fill-rule: nonzero; stroke-width: 1.35; stroke-linecap: butt; stroke-linejoin: miter; stroke-miterlimit: 4; stroke-dasharray: none; stroke-dashoffset: 0; stroke-opacity: 1; color-rendering: auto; image-rendering: auto; shape-rendering: auto; text-rendering: auto; fill: currentColor;" d="M 43.451 11.765 C 26.741 10.09 11.822 22.291 10.147 39.001 C 8.472 55.711 20.674 70.63 37.383 72.305 C 46.349 73.204 54.797 70.106 60.963 64.463 C 60.531 64.259 60.109 64.038 59.697 63.798 C 53.84 68.984 45.921 71.805 37.518 70.962 C 21.534 69.36 9.888 55.119 11.49 39.135 C 13.092 23.151 27.333 11.505 43.317 13.107 C 55.019 14.28 64.395 22.229 67.95 32.675 C 68.427 32.667 68.903 32.679 69.379 32.711 C 65.777 21.554 55.858 13.008 43.451 11.765 L 43.451 11.765 Z" id="path3722-3"/>
    </g>
    <g transform="matrix(1, 0, 0, 1, 0.14461499452591298, 0.000002000000222324161)">
        <path id="text16756" style="font-style: normal; font-variant: normal; font-weight: normal; font-stretch: normal; font-size: 56.4444px; line-height: 1.25; font-family: Evolventa; fill-opacity: 1; stroke-width: 0.999999; display: inline; fill: currentColor;" d="M 27.297 21.58 L 27.297 63.279 L 31.459 63.279 L 31.459 25.356 L 37.329 25.356 C 41.592 25.356 44.789 25.861 46.92 26.871 C 48.335 27.551 49.419 28.58 50.172 29.958 C 50.944 31.336 51.33 32.981 51.33 34.891 C 51.33 39.485 49.318 42.379 45.294 43.573 C 43.383 44.106 40.186 44.372 35.703 44.372 L 49.759 63.279 L 54.94 63.279 L 43.255 47.707 C 47.26 47.285 50.31 45.989 52.405 43.821 C 54.518 41.635 55.574 38.676 55.574 34.946 C 55.574 32.411 55.06 30.188 54.031 28.277 C 53.02 26.366 51.541 24.841 49.593 23.702 C 47.039 22.287 43.043 21.58 37.604 21.58 L 27.297 21.58 Z"/>
        <path style="font-style: normal; font-variant: normal; font-weight: normal; font-stretch: normal; font-size: 47.625px; line-height: 0; font-family: Evolventa; letter-spacing: -0.79375px; fill-opacity: 1; stroke-width: 0.264583; display: inline; fill: currentColor;" id="path877" d="M 109.94 27.174 C 109.84 27.174 109.76 27.254 109.76 27.354 L 109.76 40.172 C 107.123 37.198 103.762 35.686 99.707 35.686 C 97.075 35.686 94.677 36.291 92.526 37.5 C 90.391 38.709 88.705 40.377 87.481 42.496 C 86.271 44.617 85.668 46.985 85.668 49.586 C 85.668 52.158 86.296 54.502 87.553 56.607 C 88.809 58.711 90.534 60.364 92.715 61.557 C 94.912 62.749 97.354 63.346 100.031 63.346 C 102.225 63.346 104.11 62.923 105.676 62.068 C 107.133 61.282 108.49 60.022 109.76 58.34 L 109.76 62.539 C 109.76 62.638 109.84 62.719 109.94 62.719 L 113.473 62.719 C 113.572 62.719 113.653 62.638 113.652 62.539 L 113.652 27.354 C 113.653 27.254 113.572 27.174 113.473 27.174 L 109.94 27.174 Z M 69.176 35.686 C 66.667 35.686 64.362 36.291 62.274 37.5 C 60.186 38.709 58.533 40.369 57.324 42.473 C 56.115 44.577 55.51 46.891 55.51 49.4 C 55.51 51.314 55.872 53.136 56.594 54.863 C 57.315 56.588 58.297 58.075 59.539 59.316 C 60.781 60.558 62.267 61.54 63.992 62.262 C 65.719 62.984 67.541 63.346 69.455 63.346 C 72.328 63.346 74.951 62.486 77.305 60.775 C 79.658 59.05 81.327 56.791 82.299 54.016 C 82.339 53.899 82.253 53.777 82.129 53.777 L 78.455 53.777 C 78.382 53.777 78.317 53.821 78.289 53.889 C 77.574 55.639 76.401 57.05 74.754 58.133 C 73.107 59.2 71.315 59.73 69.363 59.73 C 66.721 59.73 64.447 58.859 62.508 57.104 C 60.619 55.378 59.61 53.302 59.432 50.857 L 82.781 50.857 C 82.881 50.858 82.961 50.777 82.961 50.678 C 82.961 48.933 82.844 47.483 82.608 46.318 C 82.372 45.138 81.962 43.992 81.381 42.877 L 81.383 42.877 C 80.237 40.663 78.558 38.904 76.361 37.617 L 76.359 37.617 C 74.178 36.331 71.778 35.686 69.176 35.686 L 69.176 35.686 Z M 131.469 35.686 C 127.43 35.686 124.073 37 121.436 39.621 C 118.798 42.227 117.477 45.546 117.477 49.539 C 117.477 52.14 118.081 54.5 119.291 56.605 C 119.292 56.605 119.292 56.605 119.293 56.605 C 120.518 58.71 122.207 60.362 124.358 61.555 C 126.509 62.748 128.916 63.346 131.563 63.346 C 135.432 63.346 138.658 62.038 141.201 59.432 C 143.745 56.826 145.02 53.531 145.02 49.586 C 145.02 46.971 144.431 44.596 143.254 42.477 L 143.252 42.475 C 142.091 40.357 140.47 38.695 138.399 37.502 L 138.397 37.5 C 136.338 36.291 134.023 35.685 131.469 35.685 L 131.469 35.686 Z M 145.293 36.314 C 145.155 36.314 145.069 36.464 145.138 36.584 C 145.14 36.589 145.143 36.593 145.147 36.598 L 154.145 49.262 L 145.145 62.438 C 145.066 62.551 145.141 62.707 145.278 62.718 C 145.283 62.719 145.288 62.719 145.293 62.719 L 149.293 62.719 C 149.352 62.719 149.408 62.69 149.442 62.641 L 156.363 52.418 L 163.213 62.639 C 163.246 62.688 163.302 62.718 163.361 62.719 L 167.408 62.719 C 167.547 62.719 167.633 62.57 167.565 62.45 C 167.562 62.446 167.56 62.442 167.557 62.438 L 158.512 49.262 L 167.555 36.598 C 167.635 36.485 167.562 36.328 167.425 36.315 C 167.419 36.315 167.414 36.315 167.408 36.314 L 163.361 36.314 C 163.303 36.315 163.249 36.343 163.215 36.391 L 156.363 46.227 L 149.44 36.391 C 149.406 36.343 149.351 36.315 149.293 36.314 L 145.293 36.314 Z M 69.176 39.277 C 71.667 39.277 73.782 40.015 75.549 41.492 C 77.277 42.925 78.428 44.864 79.027 47.313 L 59.551 47.313 C 60.049 44.939 61.144 43.024 62.873 41.561 C 62.874 41.561 62.874 41.561 62.875 41.561 C 64.659 40.036 66.749 39.277 69.176 39.277 L 69.176 39.277 Z M 99.475 39.277 C 102.411 39.277 104.868 40.263 106.883 42.248 C 106.883 42.249 106.883 42.249 106.883 42.25 C 108.899 44.22 109.899 46.604 109.899 49.445 C 109.899 52.288 108.928 54.701 106.973 56.717 C 105.018 58.733 102.686 59.731 99.94 59.731 C 97.019 59.731 94.578 58.752 92.578 56.783 C 90.594 54.799 89.608 52.381 89.608 49.492 C 89.608 46.649 90.563 44.254 92.486 42.27 C 94.41 40.269 96.728 39.277 99.475 39.277 L 99.475 39.277 Z M 131.19 39.277 C 134.095 39.277 136.455 40.247 138.315 42.197 C 138.315 42.198 138.316 42.199 138.317 42.199 C 140.176 44.135 141.104 46.6 141.104 49.633 C 141.104 52.588 140.198 55 138.385 56.904 C 136.588 58.793 134.297 59.731 131.469 59.731 C 128.563 59.731 126.177 58.775 124.272 56.854 C 122.366 54.933 121.416 52.524 121.416 49.586 C 121.416 46.616 122.345 44.172 124.205 42.221 C 126.066 40.254 128.379 39.277 131.19 39.277 L 131.19 39.277 Z" xlink:href="#text22348"/>
        <path style="font-style: normal; font-variant: normal; font-weight: normal; font-stretch: normal; font-size: 44.0972px; line-height: 1.25; font-family: Evolventa; letter-spacing: -1.5875px; fill-opacity: 1; stroke-width: 0.264583; display: inline; fill: currentColor;" id="path978" d="M 195.1 29.107 C 191.865 29.107 188.872 29.876 186.143 31.408 C 183.43 32.925 181.278 35.005 179.701 37.633 C 178.123 40.263 177.332 43.156 177.332 46.293 C 177.332 48.602 177.801 50.823 178.736 52.941 C 179.669 55.041 180.919 56.869 182.483 58.418 C 182.483 58.419 182.484 58.419 182.485 58.42 C 184.063 59.954 185.934 61.182 188.09 62.1 C 188.091 62.1 188.091 62.1 188.092 62.1 C 190.267 63.005 192.533 63.457 194.883 63.457 C 197.233 63.457 199.494 63.005 201.655 62.1 C 201.655 62.1 201.656 62.1 201.657 62.1 C 203.813 61.182 205.676 59.955 207.24 58.42 C 208.819 56.885 210.07 55.056 210.989 52.941 L 210.989 52.939 C 211.923 50.821 212.393 48.602 212.393 46.293 C 212.393 43.998 211.923 41.788 210.989 39.67 L 210.989 39.668 C 210.07 37.54 208.828 35.705 207.264 34.17 C 205.714 32.635 203.872 31.408 201.744 30.49 C 199.626 29.57 197.409 29.107 195.1 29.107 L 195.1 29.107 Z M 223.484 29.107 C 220.794 29.107 218.532 29.965 216.768 31.67 C 215.017 33.362 214.137 35.553 214.137 38.176 C 214.137 39.346 214.342 40.47 214.758 41.539 C 214.759 41.539 214.759 41.539 214.76 41.539 C 215.176 42.594 215.767 43.482 216.533 44.189 C 216.534 44.19 216.534 44.19 216.535 44.191 C 216.536 44.192 216.536 44.192 216.537 44.193 C 217.202 44.828 217.922 45.34 218.696 45.727 C 218.698 45.727 218.7 45.728 218.702 45.729 C 219.492 46.102 220.826 46.576 222.727 47.166 C 222.728 47.167 222.73 47.167 222.731 47.168 C 225.055 47.853 226.729 48.553 227.727 49.237 C 229.11 50.229 229.79 51.666 229.79 53.658 C 229.79 55.473 229.214 56.929 228.049 58.094 C 228.049 58.094 228.048 58.094 228.047 58.094 C 226.897 59.258 225.456 59.834 223.657 59.834 C 222.678 59.834 221.754 59.641 220.873 59.256 C 220.008 58.872 219.304 58.342 218.747 57.662 C 218.745 57.661 218.744 57.66 218.743 57.658 C 218.275 57.108 217.922 56.52 217.676 55.893 C 217.446 55.253 217.277 54.425 217.178 53.412 C 217.163 53.256 217.031 53.136 216.873 53.137 L 213.385 53.137 C 213.211 53.137 213.072 53.283 213.08 53.457 C 213.242 56.446 214.281 58.89 216.19 60.725 C 218.1 62.546 220.581 63.457 223.571 63.457 C 226.465 63.457 228.905 62.505 230.827 60.613 C 232.747 58.722 233.715 56.323 233.715 53.484 C 233.715 52.024 233.419 50.657 232.827 49.397 L 232.825 49.395 C 232.246 48.134 231.424 47.094 230.366 46.289 C 230.363 46.287 230.36 46.285 230.358 46.283 C 229.636 45.768 228.836 45.318 227.957 44.937 L 227.955 44.937 C 227.087 44.555 225.837 44.122 224.195 43.633 C 222.709 43.19 221.645 42.832 221.022 42.568 L 221.02 42.566 C 220.414 42.305 219.903 41.997 219.486 41.648 C 219.052 41.252 218.707 40.742 218.449 40.105 C 218.191 39.467 218.061 38.799 218.061 38.09 C 218.061 36.504 218.558 35.241 219.564 34.234 C 219.565 34.234 219.566 34.234 219.566 34.234 C 220.573 33.214 221.829 32.711 223.398 32.711 C 224.984 32.711 226.237 33.208 227.229 34.213 C 227.229 34.213 227.23 34.213 227.231 34.213 C 228.237 35.219 228.795 36.551 228.906 38.26 C 228.917 38.42 229.05 38.545 229.211 38.545 L 232.613 38.545 C 232.784 38.545 232.921 38.405 232.918 38.234 C 232.859 35.53 231.959 33.305 230.221 31.627 C 228.483 29.949 226.216 29.107 223.484 29.107 L 223.484 29.107 Z M 194.711 32.711 C 196.581 32.711 198.361 33.069 200.061 33.785 C 201.765 34.503 203.226 35.47 204.445 36.689 C 204.446 36.691 204.447 36.692 204.447 36.693 C 205.681 37.899 206.654 39.341 207.371 41.029 C 207.372 41.03 207.373 41.031 207.373 41.031 C 208.103 42.716 208.467 44.481 208.467 46.336 C 208.467 48.147 208.103 49.882 207.373 51.553 C 207.373 51.554 207.373 51.554 207.373 51.555 C 206.655 53.216 205.687 54.645 204.467 55.852 C 203.246 57.058 201.801 58.027 200.125 58.76 C 198.454 59.476 196.709 59.834 194.883 59.834 C 192.436 59.834 190.178 59.232 188.084 58.024 L 188.082 58.024 C 185.987 56.8 184.328 55.153 183.09 53.072 L 183.088 53.07 C 181.866 50.977 181.258 48.724 181.258 46.293 C 181.258 43.89 181.867 41.654 183.09 39.559 C 184.314 37.462 185.954 35.8 188.022 34.563 C 190.102 33.326 192.323 32.711 194.711 32.711 L 194.711 32.711 Z" xlink:href="#text78428"/>
    </g>
</svg>
